<mxfile host="app.diagrams.net" modified="2023-11-30T07:21:57.659Z" agent="Mozilla/5.0 (Windows NT 10.0; Win64; x64) AppleWebKit/537.36 (KHTML, like Gecko) Chrome/119.0.0.0 Safari/537.36" etag="J7_C2xNwEwjtUp72Te-u" version="22.1.5" type="github">
  <diagram name="Page-1" id="d9b1e647-80fa-b4a2-5024-87a742678bcc">
    <mxGraphModel dx="1008" dy="592" grid="1" gridSize="10" guides="1" tooltips="1" connect="1" arrows="1" fold="1" page="1" pageScale="1" pageWidth="1100" pageHeight="850" background="none" math="0" shadow="0">
      <root>
        <mxCell id="0" />
        <mxCell id="1" parent="0" />
        <mxCell id="57fe6abec08f04cb-1" value="&lt;font face=&quot;Times New Roman&quot;&gt;Year 1&lt;/font&gt;" style="shape=step;whiteSpace=wrap;html=1;fontSize=28;fillColor=#f8cecc;strokeColor=#b85450;" parent="1" vertex="1">
          <mxGeometry x="90" y="180" width="170" height="80" as="geometry" />
        </mxCell>
        <mxCell id="57fe6abec08f04cb-2" value="&lt;font face=&quot;Times New Roman&quot;&gt;Year 2&lt;/font&gt;" style="shape=step;whiteSpace=wrap;html=1;fontSize=28;fillColor=#f8cecc;strokeColor=#b85450;" parent="1" vertex="1">
          <mxGeometry x="240" y="180" width="170" height="80" as="geometry" />
        </mxCell>
        <mxCell id="57fe6abec08f04cb-3" value="&lt;font face=&quot;Times New Roman&quot;&gt;Year 3&lt;/font&gt;" style="shape=step;whiteSpace=wrap;html=1;fontSize=28;fillColor=#f8cecc;strokeColor=#b85450;" parent="1" vertex="1">
          <mxGeometry x="390" y="180" width="170" height="80" as="geometry" />
        </mxCell>
        <mxCell id="57fe6abec08f04cb-4" value="&lt;font face=&quot;Times New Roman&quot;&gt;Year 4&lt;/font&gt;" style="shape=step;whiteSpace=wrap;html=1;fontSize=28;fillColor=#f8cecc;strokeColor=#b85450;" parent="1" vertex="1">
          <mxGeometry x="540" y="180" width="170" height="80" as="geometry" />
        </mxCell>
        <mxCell id="57fe6abec08f04cb-5" value="&lt;font face=&quot;Times New Roman&quot;&gt;Year 5&lt;/font&gt;" style="shape=step;whiteSpace=wrap;html=1;fontSize=28;fillColor=#f8cecc;strokeColor=#b85450;" parent="1" vertex="1">
          <mxGeometry x="690" y="180" width="170" height="80" as="geometry" />
        </mxCell>
        <mxCell id="57fe6abec08f04cb-7" value="&lt;font face=&quot;Times New Roman&quot;&gt;2025-2030&lt;/font&gt;" style="text;html=1;strokeColor=#82b366;fillColor=#d5e8d4;align=center;verticalAlign=middle;whiteSpace=wrap;fontSize=54;fontStyle=1;" parent="1" vertex="1">
          <mxGeometry x="90" y="110" width="760" height="60" as="geometry" />
        </mxCell>
        <mxCell id="57fe6abec08f04cb-8" value="&lt;font face=&quot;Times New Roman&quot; style=&quot;font-size: 24px;&quot;&gt;Set-up and data collection&lt;/font&gt;" style="text;spacingTop=-5;fillColor=default;whiteSpace=wrap;html=1;align=center;fontSize=12;fontFamily=Helvetica;fillColor=none;strokeColor=#d6b656;" parent="1" vertex="1">
          <mxGeometry x="100" y="280" width="140" height="160" as="geometry" />
        </mxCell>
        <mxCell id="57fe6abec08f04cb-9" value="&lt;div style=&quot;&quot;&gt;&lt;span style=&quot;font-size: 24px; font-family: &amp;quot;Times New Roman&amp;quot;; background-color: initial;&quot;&gt;Model development, pilot study, and feedback&lt;/span&gt;&lt;/div&gt;" style="text;spacingTop=-5;fillColor=#fff2cc;whiteSpace=wrap;html=1;align=center;fontSize=12;fontFamily=Helvetica;fillColor=none;strokeColor=#d6b656;" parent="1" vertex="1">
          <mxGeometry x="250" y="280" width="140" height="160" as="geometry" />
        </mxCell>
        <mxCell id="57fe6abec08f04cb-10" value="&lt;font face=&quot;Times New Roman&quot; style=&quot;font-size: 24px;&quot;&gt;System expansion and refinement&lt;/font&gt;" style="text;spacingTop=-5;fillColor=#fff2cc;whiteSpace=wrap;html=1;align=center;fontSize=12;fontFamily=Helvetica;fillColor=none;strokeColor=#d6b656;" parent="1" vertex="1">
          <mxGeometry x="400" y="280" width="140" height="160" as="geometry" />
        </mxCell>
        <mxCell id="57fe6abec08f04cb-11" value="&lt;font face=&quot;Times New Roman&quot; style=&quot;font-size: 24px;&quot;&gt;Machine learning and optimization&lt;/font&gt;" style="text;spacingTop=-5;fillColor=#fff2cc;whiteSpace=wrap;html=1;align=center;fontSize=12;fontFamily=Helvetica;fillColor=none;strokeColor=#d6b656;" parent="1" vertex="1">
          <mxGeometry x="550" y="280" width="140" height="160" as="geometry" />
        </mxCell>
        <mxCell id="57fe6abec08f04cb-12" value="&lt;font face=&quot;Times New Roman&quot; style=&quot;font-size: 24px;&quot;&gt;Full-scale applicability and evaluation&lt;/font&gt;" style="text;spacingTop=-5;fillColor=#fff2cc;whiteSpace=wrap;html=1;align=center;fontSize=12;fontFamily=Helvetica;fillColor=none;strokeColor=#d6b656;" parent="1" vertex="1">
          <mxGeometry x="700" y="280" width="140" height="160" as="geometry" />
        </mxCell>
      </root>
    </mxGraphModel>
  </diagram>
</mxfile>
